<svg width="152" height="106" viewBox="0 0 152 106" fill="none" xmlns="http://www.w3.org/2000/svg">
<path d="M39.0955 67.5083H32.0677C32.0085 66.2626 31.8501 65.2353 31.5932 64.424C31.3357 63.6136 30.674 63.2087 29.6059 63.2087C28.2618 63.2087 27.4817 63.8156 27.2641 65.0324C27.0457 66.2478 26.9473 67.5875 26.9672 69.05V70.2358C26.9865 70.3542 26.9969 70.5178 26.9969 70.7257C26.9969 70.933 27.0065 71.3438 27.0265 71.9559C27.0657 74.1505 27.3181 75.4798 27.7829 75.9453C28.247 76.4094 28.8746 76.6411 29.6659 76.6411C29.8035 76.6411 29.9819 76.6263 30.1988 76.5967C30.4171 76.5671 30.634 76.4931 30.8516 76.3746C31.2468 76.177 31.6029 75.7714 31.9196 75.1586C32.2357 74.5464 32.3934 73.5672 32.3934 72.2231V71.9566H39.4219C39.3427 74.4865 38.4338 76.5922 36.6937 78.2724C34.9543 79.9526 32.6213 80.7934 29.6955 80.7934C29.1611 80.7934 28.5734 80.749 27.9309 80.6602C27.2615 80.5648 26.6017 80.4107 25.9592 80.1998C24.4759 79.6669 23.1221 78.6336 21.8957 77.1015C20.6707 75.5693 20.0579 73.1816 20.0579 69.9397C20.0579 66.8754 20.9031 64.2953 22.5929 62.1999C24.2834 60.1052 26.6112 59.0564 29.5763 59.0564C32.6406 59.0564 34.9883 59.9217 36.6197 61.6514C38.2502 63.3812 39.0755 65.3337 39.0955 67.5083ZM50.5716 59.0564C52.331 59.0564 53.7839 59.3828 54.9312 60.0356C56.0769 60.6877 56.9866 61.4094 57.6587 62.2006C57.7379 62.299 57.8171 62.4027 57.8955 62.5115C57.9747 62.6203 58.0539 62.7239 58.1331 62.8223C58.2915 63.0407 58.4395 63.2679 58.5779 63.5048C58.7164 63.7416 58.8444 63.9792 58.9636 64.2168C59.5372 65.3633 59.8828 66.4654 60.0013 67.5231C60.1197 68.5808 60.1789 69.3861 60.1789 69.9397C60.1789 70.3542 60.1641 70.7746 60.1345 71.2002C60.1049 71.625 60.0605 72.0551 60.0013 72.4903C59.8641 73.3365 59.6558 74.1697 59.3788 74.9809C59.1157 75.765 58.7356 76.5049 58.2515 77.1755C57.7778 77.8476 57.2686 78.4012 56.7246 78.8357C56.2079 79.2535 55.6458 79.6118 55.0489 79.9037C54.1992 80.279 53.3739 80.521 52.573 80.6298C51.7729 80.7386 51.1053 80.7926 50.5716 80.7926C48.6147 80.7926 47.0337 80.4425 45.8272 79.7401C44.6208 79.0385 43.6919 78.2628 43.0398 77.4123C42.9998 77.3731 42.9658 77.3331 42.9362 77.2939C42.9066 77.2547 42.8814 77.2147 42.8614 77.1755C42.2486 76.3058 41.7741 75.2429 41.4381 73.9876C41.1021 72.7323 40.9437 71.3823 40.9636 69.9397C40.9836 69.2284 41.0776 68.2395 41.2449 66.9746C41.4137 65.7089 41.9621 64.3848 42.891 63C42.911 62.9615 42.9302 62.926 42.9502 62.8964C42.9675 62.8698 42.9874 62.845 43.0094 62.8223C43.1486 62.6055 43.3359 62.3583 43.5734 62.0822C43.8103 61.8046 44.0975 61.5182 44.4328 61.2214C45.0456 60.6877 45.8517 60.1933 46.8501 59.7388C47.8486 59.2844 49.0884 59.0564 50.5716 59.0564ZM50.5716 63.2087C49.3459 63.2087 48.5895 63.8008 48.3031 64.9873C48.0166 66.1738 47.8738 67.4987 47.8738 68.9612V71.6894C47.8738 71.9463 47.8827 72.2038 47.9034 72.4607C47.9626 73.508 48.1595 74.4717 48.4955 75.3517C48.8315 76.2318 49.5243 76.6714 50.5716 76.6714C51.6389 76.6714 52.3406 76.2162 52.6767 75.3073C53.0127 74.3977 53.2007 73.3992 53.2407 72.3119C53.2599 72.0751 53.2703 71.8427 53.2703 71.6154V68.1604C53.2703 67.8835 53.2599 67.6067 53.2407 67.3299C53.1814 66.3018 52.9786 65.3581 52.6322 64.498C52.2866 63.6387 51.5997 63.2087 50.5716 63.2087ZM62.255 59.5612H78.3572L78.3276 65.8777H75.0953C75.0901 65.6394 75.0703 65.4016 75.0361 65.1657L74.9769 64.8696C74.9591 64.7801 74.9393 64.6911 74.9177 64.6024C74.7992 64.1672 74.6305 63.9148 74.4136 63.846C74.196 63.7764 73.8792 63.7423 73.464 63.7423H70.6181V67.8643H74.8281V72.0455H70.6181V75.3369C70.6181 75.9098 70.7165 76.2458 70.9142 76.345C71.1118 76.4435 71.359 76.4931 71.6551 76.4931H72.7823V80.3189H62.255V76.4931H63.4119C63.6887 76.4931 63.9256 76.4435 64.1232 76.345C64.3216 76.2458 64.42 75.9098 64.42 75.3369V64.5425C64.42 63.9696 64.3216 63.6336 64.1239 63.5344C63.9256 63.4359 63.6887 63.3863 63.4119 63.3863H62.255V59.5612ZM79.3949 59.5612H95.497L95.4674 65.8777H92.2352C92.2298 65.6394 92.2101 65.4016 92.176 65.1657L92.1167 64.8696C92.0992 64.7801 92.0795 64.691 92.0575 64.6024C91.9391 64.1672 91.7704 63.9148 91.5535 63.846C91.3359 63.7764 91.0198 63.7423 90.6046 63.7423H87.7572V67.8643H91.9687V72.0455H87.7572V75.3369C87.7572 75.9098 87.8564 76.2458 88.054 76.345C88.2516 76.4435 88.4981 76.4931 88.7956 76.4931H89.9222V80.3189H79.3949V76.4931H80.5518C80.8286 76.4931 81.0654 76.4435 81.2638 76.345C81.4607 76.2458 81.5599 75.9098 81.5599 75.3369V64.5425C81.5599 63.9696 81.4607 63.6336 81.2638 63.5344C81.0654 63.4359 80.8286 63.3863 80.5518 63.3863H79.3949V59.5612ZM96.5355 80.3189V76.4931H97.6916C97.9684 76.4931 98.2053 76.4435 98.4029 76.345C98.6005 76.2458 98.6997 75.9098 98.6997 75.3369V64.5425C98.6997 63.9696 98.6005 63.6336 98.4037 63.5344C98.2053 63.4359 97.9684 63.3863 97.6916 63.3863H96.5355V59.5612H112.904L112.874 65.8777H109.109C109.109 65.8185 109.094 65.7193 109.064 65.5809C109.035 65.4425 109.009 65.3033 108.99 65.1657C108.99 65.083 108.97 65.0016 108.931 64.9288C108.931 64.8696 108.926 64.8104 108.916 64.7504C108.909 64.6992 108.894 64.6493 108.872 64.6024C108.753 64.1672 108.585 63.9148 108.367 63.846C108.149 63.7764 107.833 63.7423 107.418 63.7423H104.898V67.6859H108.93V71.8678H104.898V76.1378H107.152C107.903 76.1378 108.392 76.0342 108.619 75.8262C108.847 75.6189 109.009 75.3569 109.108 75.0401C109.129 74.9609 109.148 74.8817 109.167 74.8033L109.227 74.5664C109.266 74.4673 109.297 74.3629 109.316 74.2548C109.336 74.146 109.356 74.0224 109.375 73.884H113.201V80.3189H96.5355ZM115.276 80.3189V76.4931H116.433C116.71 76.4931 116.947 76.4435 117.144 76.345C117.342 76.2458 117.441 75.9098 117.441 75.3369V64.5425C117.441 63.9696 117.342 63.6336 117.145 63.5344C116.947 63.4359 116.71 63.3863 116.433 63.3863H115.276V59.5612H131.646L131.616 65.8777H127.849C127.849 65.8185 127.835 65.7193 127.805 65.5809C127.775 65.4425 127.751 65.3033 127.731 65.1657C127.731 65.083 127.711 65.0017 127.672 64.9288C127.672 64.8696 127.667 64.8104 127.657 64.7504C127.65 64.6992 127.635 64.6493 127.613 64.6024C127.494 64.1672 127.326 63.9148 127.108 63.846C126.891 63.7764 126.574 63.7423 126.16 63.7423H123.638V67.6859H127.671V71.8678H123.638V76.1378H125.892C126.643 76.1378 127.132 76.0342 127.359 75.8262C127.587 75.6189 127.75 75.3569 127.849 75.0401L127.908 74.8033L127.967 74.5664C128.007 74.4673 128.037 74.3629 128.056 74.2548C128.076 74.146 128.096 74.0224 128.116 73.884H131.941V80.3189H115.276ZM9.60905 84.0804C11.3677 84.0804 12.8213 84.4061 13.9671 85.0589C15.1144 85.711 16.0233 86.4326 16.6961 87.2239C16.7745 87.3223 16.8537 87.4267 16.9329 87.5348C17.0121 87.6436 17.0906 87.7472 17.1698 87.8464C17.3282 88.064 17.4762 88.2904 17.6146 88.528C17.753 88.7649 17.8811 89.0025 17.9995 89.2401C18.5739 90.3866 18.9195 91.4887 19.0379 92.5464C19.1564 93.604 19.2156 94.4093 19.2156 94.963C19.2156 95.3775 19.2008 95.7979 19.1712 96.2227C19.1415 96.6483 19.0971 97.0783 19.0379 97.5128C18.9007 98.3589 18.6927 99.1921 18.4162 100.003C18.1529 100.787 17.7729 101.527 17.2889 102.198C16.8145 102.87 16.3053 103.424 15.7612 103.858C15.2448 104.276 14.6829 104.634 14.0863 104.926C13.2358 105.302 12.4105 105.544 11.6104 105.652C10.8096 105.761 10.1427 105.815 9.60905 105.815C7.65207 105.815 6.07035 105.465 4.86463 104.763C3.65818 104.061 2.72928 103.285 2.0772 102.435C2.03724 102.396 2.00318 102.356 1.97357 102.316C1.9452 102.279 1.92019 102.24 1.89882 102.198C1.28597 101.328 0.811532 100.266 0.4755 99.0102C0.139468 97.7549 -0.0189257 96.4055 0.00179869 94.963C0.0210428 94.2509 0.115035 93.2628 0.283051 91.9979C0.451067 90.7322 0.999524 89.4073 1.92916 88.024C1.94841 87.9848 1.96839 87.95 1.98838 87.9204C2.00559 87.8938 2.02543 87.869 2.04759 87.8464C2.18526 87.6287 2.37326 87.3815 2.61011 87.1054C2.8477 86.8279 3.13414 86.5415 3.47017 86.2454C4.08302 85.711 4.88906 85.2166 5.88754 84.7621C6.88527 84.3077 8.12578 84.0812 9.60905 84.0812V84.0804ZM9.60905 88.232C8.38261 88.232 7.62691 88.8249 7.34047 90.0106C7.05328 91.1971 6.90969 92.5219 6.90969 93.9845V96.7127C6.90969 96.9695 6.92005 97.2264 6.94004 97.4832C6.99925 98.5313 7.19687 99.495 7.5329 100.374C7.86893 101.254 8.56173 101.694 9.60905 101.694C10.6764 101.694 11.378 101.24 11.7141 100.33C12.0501 99.4209 12.2381 98.4225 12.2766 97.3352C12.2973 97.0983 12.3069 96.8652 12.3069 96.6379V93.1836C12.3069 92.9068 12.2973 92.63 12.2773 92.3532C12.2181 91.3251 12.0153 90.3814 11.6697 89.5213C11.3233 88.662 10.6364 88.232 9.60905 88.232ZM21.2917 84.5845H31.6406C33.9536 84.5845 35.6338 84.9553 36.6811 85.6962C37.7292 86.4378 38.4205 87.2535 38.7572 88.1432C38.9453 88.5827 39.0699 89.0467 39.1273 89.5213C39.1769 89.9669 39.2013 90.357 39.2013 90.693C39.2013 91.6019 38.9697 92.4723 38.5056 93.3021C38.04 94.1325 37.3435 94.7846 36.4146 95.2591L38.134 98.2841L38.2524 98.5209L38.3709 98.7578C38.4308 98.8377 38.4856 98.9265 38.5344 99.025L38.6677 99.2914C38.9445 99.8058 39.2613 100.285 39.6173 100.73C39.9726 101.175 40.4574 101.437 41.0702 101.516V105.341H31.463V101.516C31.8182 101.496 32.0899 101.437 32.2771 101.339C32.4659 101.24 32.5599 101.052 32.5599 100.775C32.5599 100.696 32.5347 100.557 32.4859 100.36C32.4363 100.162 32.2934 99.8554 32.0558 99.4402L30.899 97.2168H29.2388V100.552C29.2388 100.621 29.2484 100.696 29.2684 100.775C29.2853 100.964 29.3461 101.147 29.446 101.308C29.5445 101.467 29.7421 101.536 30.0389 101.516H30.2173V105.341H21.291V101.516H22.2413C22.5774 101.516 22.8142 101.452 22.9534 101.324C23.0918 101.195 23.1606 100.715 23.1606 99.885V89.9521C23.1606 89.3985 23.1162 88.9973 23.0274 88.7508C22.9386 88.5036 22.6366 88.38 22.1229 88.38H21.2925L21.2917 84.5845ZM29.2388 88.7656V93.0356H29.8909C30.6421 93.0356 31.2306 92.8328 31.6554 92.4279C32.0803 92.0223 32.2927 91.4435 32.2927 90.693C32.2927 90.0409 32.135 89.5857 31.819 89.3289C31.5185 89.0798 31.1622 88.9072 30.7806 88.8256C30.4458 88.788 30.1093 88.768 29.7725 88.7656H29.2388ZM42.1079 105.341V101.516H43.2641C43.5409 101.516 43.7785 101.467 43.9761 101.368C44.1737 101.269 44.2722 100.933 44.2722 100.359V89.5665C44.2722 88.9929 44.1737 88.6568 43.9761 88.5576C43.7785 88.4592 43.5409 88.4096 43.2641 88.4096H42.1079V84.5845H52.6345V88.4096H51.5072C51.2111 88.4096 50.9639 88.4592 50.767 88.5576C50.5687 88.6568 50.4702 88.9929 50.4702 89.5665V100.359C50.4702 100.933 50.5687 101.269 50.7663 101.368C50.9639 101.467 51.2111 101.516 51.5079 101.516H52.6345V105.341H42.1079ZM73.7171 92.4723H66.6597C66.6405 91.2659 66.4873 90.2578 66.2008 89.4473C65.9136 88.6368 65.2564 88.232 64.2283 88.232C62.9434 88.232 62.1877 88.7797 61.9605 89.8773C61.7325 90.9743 61.6193 92.294 61.6193 93.8364V96.0895C61.6193 97.7504 61.728 99.0945 61.9449 100.123C62.1633 101.151 62.9441 101.664 64.2883 101.664H64.5843C65.2371 101.605 65.8352 101.402 66.3785 101.057C66.9218 100.71 67.1941 100.339 67.1941 99.945V99.2922C67.1941 99.0945 67.1245 98.9517 66.9869 98.8629C66.8477 98.7733 66.6997 98.7185 66.5413 98.6993C66.4229 98.6593 66.3141 98.6401 66.2156 98.6401H65.4444V94.8445H75.2293V98.6401H75.0524C74.5979 98.6401 74.3115 98.7637 74.1923 99.0102C74.0739 99.2574 73.9947 99.6186 73.9555 100.093V105.341H70.1599L69.8343 103.74H69.5967C69.4975 103.858 69.3746 103.987 69.2259 104.125C69.0778 104.264 68.9046 104.412 68.707 104.57C68.2718 104.887 67.6989 105.173 66.9869 105.43C66.2756 105.687 65.3859 105.815 64.3179 105.815C63.785 105.815 63.1913 105.766 62.5393 105.667C61.8864 105.569 61.2248 105.41 60.5527 105.193C59.0894 104.64 57.7504 103.592 56.5344 102.05C55.319 100.508 54.7106 98.1456 54.7106 94.963C54.7106 91.8987 55.5462 89.3185 57.2168 87.2239C58.8866 85.1277 61.2144 84.0804 64.1994 84.0804C67.0661 84.0804 69.3539 84.8909 71.0644 86.5118C72.7742 88.1328 73.6587 90.1194 73.7179 92.4723H73.7171ZM77.3054 105.341V101.516H78.4615C78.7384 101.516 78.976 101.467 79.1736 101.368C79.3712 101.269 79.4696 100.933 79.4696 100.359V89.5665C79.4696 88.9929 79.3712 88.6568 79.1736 88.5576C78.976 88.4592 78.7384 88.4096 78.4615 88.4096H77.3054V84.5845H87.832V88.4096H86.7054C86.4086 88.4096 86.1614 88.4592 85.9638 88.5576C85.7662 88.6568 85.6677 88.9929 85.6677 89.5665V100.359C85.6677 100.933 85.7662 101.269 85.9638 101.368C86.1614 101.467 86.4086 101.516 86.7054 101.516H87.832V105.341H77.3054ZM97.6472 84.5845L104.319 95.8822H104.497V89.5961C104.497 89.1409 104.432 88.8293 104.304 88.662C104.175 88.494 103.893 88.4096 103.459 88.4096H102.658V84.5845H110.131V88.4096H109.33C108.895 88.4096 108.613 88.494 108.485 88.6613C108.357 88.8293 108.292 89.1409 108.292 89.5961V105.341H102.658L96.0751 94.2213H95.8975V100.359C95.8975 100.933 95.9818 101.269 96.1491 101.368C96.3179 101.467 96.5496 101.516 96.8464 101.516H97.736V105.341H90.2634V101.516H91.1235C91.4195 101.516 91.6519 101.467 91.8207 101.368C91.9887 101.269 92.0723 100.933 92.0723 100.359V89.5961C92.0723 89.1409 92.0183 88.8293 91.9095 88.662C91.8007 88.494 91.5187 88.4096 91.0642 88.4096H90.2634V84.5845H97.6472ZM127.418 84.5845L131.6 99.7666C131.634 99.9064 131.674 100.045 131.718 100.182C131.837 100.577 131.985 100.898 132.162 101.146C132.341 101.393 132.657 101.516 133.111 101.516H133.556V105.341H123.653V101.516H124.689C124.807 101.496 124.917 101.457 125.016 101.398C125.114 101.339 125.164 101.22 125.164 101.042C125.164 100.963 125.154 100.879 125.134 100.79C125.114 100.701 125.085 100.587 125.046 100.448C125.046 100.389 125.04 100.345 125.031 100.315C125.02 100.285 125.006 100.251 124.986 100.211C124.986 100.191 124.981 100.171 124.972 100.152C124.96 100.124 124.955 100.094 124.957 100.063H118.818C118.795 100.111 118.775 100.161 118.759 100.211C118.743 100.262 118.723 100.312 118.7 100.359C118.666 100.495 118.646 100.635 118.64 100.775C118.64 101.032 118.694 101.21 118.803 101.308C118.897 101.4 119.015 101.461 119.144 101.486C119.224 101.506 119.292 101.516 119.352 101.516H119.796V105.341H111.85V101.516H112.324C112.7 101.516 112.997 101.442 113.214 101.294C113.431 101.146 113.629 100.864 113.807 100.448C113.886 100.271 113.965 100.063 114.044 99.8266C114.123 99.589 114.212 99.3121 114.31 98.9954L117.187 89.8033C117.287 89.4866 117.35 89.2645 117.38 89.1365C117.409 89.0077 117.424 88.904 117.424 88.8256C117.424 88.7064 117.375 88.6072 117.276 88.528C117.177 88.4496 116.812 88.4096 116.179 88.4096H115.675V84.5845H127.418ZM121.933 89.9514L120.124 95.8822H123.742L122.081 89.9514H121.933ZM135.276 105.341V101.516H136.432C136.709 101.516 136.947 101.467 137.144 101.368C137.342 101.269 137.44 100.933 137.44 100.359V89.5665C137.44 88.9929 137.342 88.6568 137.144 88.5576C136.947 88.4592 136.709 88.4096 136.432 88.4096H135.276V84.5845H145.625V88.4096H144.202C144.063 88.4496 143.935 88.5428 143.816 88.6909C143.698 88.8396 143.638 89.1313 143.638 89.5665V101.16H146.099C146.772 101.16 147.29 101.046 147.656 100.82C148.022 100.592 148.244 99.7866 148.323 98.4025H152V105.341H135.276Z" fill="#FEFEFE"/>
<path fill-rule="evenodd" clip-rule="evenodd" d="M54.9186 30.8408C54.9186 30.8408 54.9971 32.5676 54.134 33.2745C53.2703 33.9806 51.7115 33.0798 49.8071 31.5913C42.0317 25.5124 48.4045 1.20042 59.8088 0.32777C61.8391 0.172337 63.8205 0.327759 64.061 1.28627C64.3008 2.24477 63.8812 3.32244 63.1025 3.68216C62.3239 4.04113 62.503 3.80136 61.1855 3.02345C59.868 2.2448 58.7304 2.12491 58.7304 2.12491C58.7304 2.12491 59.9887 2.96275 61.1855 4.10112C62.3846 5.23874 62.0885 4.72655 61.5452 5.71836C58.0665 12.0778 56.9747 16.8814 56.6654 24.3052C56.5958 25.9817 56.3945 27.9971 55.5566 28.7758C54.718 29.5544 53.7595 29.3153 52.8617 29.3153C51.9631 29.3153 51.4243 29.2554 51.4243 29.2554C51.4243 29.2554 52.5619 30.2739 54.9186 30.8408ZM105.632 22.9359L109.546 22.4408C109.546 22.4408 110.131 24.4651 109.996 25.2756C109.861 26.0853 105.632 22.9367 105.632 22.9367V22.9359ZM83.0039 7.4607C83.0039 7.4607 88.1776 5.66209 92.6763 7.91069C97.175 10.16 100.819 13.174 103.023 15.1531C105.227 17.1331 107.521 18.9768 108.197 19.922C108.871 20.8664 108.826 21.5866 108.826 21.5866L104.463 22.4408C104.463 22.4408 99.5139 19.2921 97.9847 18.4824C96.4548 17.6727 93.8457 16.1435 91.777 14.299C89.7075 12.4538 88.8526 11.5997 88.8526 11.5997L89.4374 8.67601L87.7276 10.7899C87.7276 10.7899 84.3081 7.95512 83.0039 7.4607ZM77.4527 10.055C77.4527 10.055 80.8256 7.0647 81.9751 8.29189C83.1253 9.51759 86.1918 12.8143 86.1918 12.8143L80.0595 13.0437C80.0595 13.0437 81.209 13.9674 82.7041 14.0015C84.1993 14.0355 86.0334 13.7639 86.4419 13.866C86.849 13.9674 89.1938 16.7874 91.2322 18.2826C93.2706 19.7777 97.4155 21.1026 97.4155 21.1026L94.8339 23.0736C94.8339 23.0736 96.7361 23.1417 97.7893 22.5296C98.8433 21.9182 100.372 21.4763 101.629 22.8701C102.886 24.263 102.309 25.9269 102.648 27.5582C102.988 29.1895 103.43 29.2909 103.43 29.2909L103.739 23.6065C103.739 23.6065 107.135 24.8315 108.904 26.3384C110.672 27.8454 110.41 30.3168 109.546 31.4218C108.682 32.5269 104.555 35.4239 101.543 36.0427C98.5324 36.6614 96.7035 36.0145 96.7035 36.0145C98.0032 31.5891 97.0987 23.95 90.6838 24.0795C88.8386 17.9436 80.9403 17.8784 77.5082 18.7903C77.5082 18.7903 78.3735 12.2251 77.4527 10.055ZM58.7607 39.725C59.1182 42.3629 60.5038 45.402 63.9907 46.8327C67.4776 48.2634 72.7979 48.7556 78.0278 48.4418C83.2585 48.1287 90.3663 44.3295 93.093 40.038C95.8197 35.7466 94.7761 29.4893 94.5334 28.4168C94.2913 27.3436 93.2529 25.8558 91.3854 25.545C89.5173 25.2341 87.268 27.0675 86.4035 27.8284C85.5382 28.5892 85.0889 29.6625 86.5759 30.7002C88.0636 31.7379 90.4173 33.5365 90.4173 33.5365C90.4173 33.5365 87.9252 32.8111 85.8846 31.8075C83.8433 30.8038 84.6389 30.4922 83.2548 31.2538C81.8707 32.0147 78.4416 34.3795 74.0968 35.0508C69.7521 35.7207 68.2947 35.5171 67.77 35.546C67.2452 35.5749 66.6035 36.3624 66.4873 37.9367C66.3703 39.511 65.2038 41.0269 64.3297 41.5517C63.4548 42.0772 64.796 40.7064 65.2334 38.7531C65.6709 36.7991 65.3496 36.5667 65.1461 36.4209C65.0662 36.3639 58.3322 36.5704 58.7607 39.725ZM86.1895 21.3668C86.1895 21.3668 86.157 23.944 86.4545 24.5391C86.7513 25.1342 87.0156 25.1993 87.9082 25.0017C88.4705 24.8718 89.0143 24.6718 89.5269 24.4066C89.5269 24.4066 88.3375 22.4578 86.1895 21.3668ZM59.8362 36.318C59.8362 36.318 60.0368 30.7098 66.2467 26.1689C72.4566 21.6288 75.5949 20.56 78.8664 20.0922C82.1386 19.6252 85.2769 20.9604 85.2769 20.9604L85.4101 25.9017L79.802 28.9734L78.4667 26.3695C78.4667 26.3695 78.4001 29.1747 78.0656 29.775C77.7325 30.376 61.5726 36.1848 59.8362 36.318ZM63.3061 26.3088C63.3061 26.3088 61.207 28.3687 59.8081 30.6624C58.4092 32.9547 58.0591 34.7429 58.0591 34.7429C58.0591 34.7429 55.9992 34.1997 55.6884 33.7326C55.3775 33.2663 56.4655 31.4788 57.3596 29.3797C58.2538 27.2807 58.7585 25.2593 59.4195 25.1816C60.0797 25.1038 63.3061 26.3088 63.3061 26.3088ZM67.2955 9.97057C67.2955 9.97057 66.0372 9.97056 64.8397 9.55089C63.6414 9.13196 63.2224 9.67081 63.0426 10.9283C62.7872 12.7173 58.9643 23.682 60.1678 24.2845C60.8865 24.6442 64.0011 25.8418 64.0011 25.8418C64.0011 25.8418 67.1149 22.7272 69.7506 21.4097C72.3856 20.0922 75.3803 19.3736 75.3803 19.3736C77.768 12.761 75.5113 6.64357 69.5108 3.14262C68.0734 2.30476 66.6368 1.94503 65.9181 3.56154C65.1987 5.17879 63.9411 7.15575 64.1809 7.51473C64.42 7.87445 67.2955 9.97057 67.2955 9.97057Z" fill="#FEFEFE"/>
</svg>
