<svg width="145" height="48" viewBox="0 0 145 48" fill="none" xmlns="http://www.w3.org/2000/svg">
<g clip-path="url(#clip0_205_146)">
<path d="M60.9408 20.16C60.8002 20.16 60.685 20.1152 60.5952 20.0256C60.5055 19.9359 60.4608 19.8207 60.4608 19.68V7.19996C60.4608 7.05917 60.5055 6.94397 60.5952 6.85436C60.685 6.76474 60.8002 6.71996 60.9408 6.71996H65.76C67.0402 6.71996 68.1087 6.92477 68.9664 7.33436C69.8242 7.73117 70.477 8.31994 70.9248 9.10076C71.3856 9.86876 71.629 10.8224 71.6544 11.9616C71.6674 12.5247 71.6736 13.0176 71.6736 13.44C71.6736 13.8624 71.6674 14.3487 71.6544 14.8992C71.616 16.0896 71.3794 17.0751 70.944 17.856C70.5087 18.6368 69.8688 19.2192 69.024 19.6032C68.1792 19.9743 67.1232 20.16 65.856 20.16H60.9408ZM63.5136 17.6832H65.76C66.3999 17.6832 66.925 17.5872 67.3344 17.3952C67.7439 17.2032 68.0448 16.9023 68.2368 16.4928C68.4418 16.0704 68.5503 15.5264 68.5632 14.8608C68.5762 14.4896 68.5824 14.1567 68.5824 13.8624C68.5954 13.568 68.5954 13.2735 68.5824 12.9792C68.5824 12.6848 68.5762 12.3584 68.5632 12C68.5378 11.04 68.2882 10.3359 67.8144 9.88796C67.3536 9.42716 66.637 9.19676 65.664 9.19676H63.5136V17.6832ZM74.3227 20.16C74.1951 20.16 74.0861 20.1152 73.9963 20.0256C73.9071 19.9359 73.8619 19.8207 73.8619 19.68V10.656C73.8619 10.5152 73.9071 10.4 73.9963 10.3104C74.0861 10.2207 74.1951 10.176 74.3227 10.176H76.2427C76.3839 10.176 76.4991 10.2207 76.5883 10.3104C76.6781 10.4 76.7227 10.5152 76.7227 10.656V19.68C76.7227 19.8207 76.6781 19.9359 76.5883 20.0256C76.4991 20.1152 76.3839 20.16 76.2427 20.16H74.3227ZM74.2651 8.63996C74.1375 8.63996 74.0285 8.59517 73.9387 8.50556C73.8495 8.41594 73.8043 8.30074 73.8043 8.15996V6.62396C73.8043 6.48317 73.8495 6.36797 73.9387 6.27836C74.0285 6.17597 74.1375 6.12476 74.2651 6.12476H76.2811C76.4223 6.12476 76.5375 6.17597 76.6267 6.27836C76.7295 6.36797 76.7803 6.48317 76.7803 6.62396V8.15996C76.7803 8.30074 76.7295 8.41594 76.6267 8.50556C76.5375 8.59517 76.4223 8.63996 76.2811 8.63996H74.2651ZM83.8157 24.384C82.8687 24.384 82.0815 24.2559 81.4541 24C80.8267 23.7567 80.3275 23.456 79.9565 23.0976C79.5979 22.752 79.3421 22.4064 79.1885 22.0608C79.0349 21.7152 78.9519 21.4464 78.9389 21.2544C78.9259 21.1136 78.9711 20.9984 79.0733 20.9088C79.1755 20.8191 79.2907 20.7744 79.4189 20.7744H81.4733C81.5885 20.7744 81.6845 20.7999 81.7613 20.8512C81.8511 20.9151 81.9211 21.0176 81.9725 21.1584C82.0363 21.312 82.1261 21.4719 82.2413 21.6384C82.3565 21.8175 82.5293 21.9648 82.7597 22.08C83.0031 22.1952 83.3227 22.2528 83.7197 22.2528C84.1675 22.2528 84.5391 22.1888 84.8333 22.0608C85.1275 21.9327 85.3455 21.7152 85.4861 21.408C85.6397 21.1008 85.7165 20.6847 85.7165 20.16V18.8736C85.4093 19.2063 85.0191 19.4816 84.5453 19.6992C84.0845 19.9167 83.5147 20.0256 82.8365 20.0256C82.1707 20.0256 81.5823 19.9232 81.0701 19.7184C80.5709 19.5008 80.1547 19.2 79.8221 18.816C79.4895 18.4191 79.2331 17.9456 79.0541 17.3952C78.8751 16.8447 78.7723 16.224 78.7469 15.5328C78.7339 15.1872 78.7339 14.8479 78.7469 14.5152C78.7723 13.8495 78.8751 13.2416 79.0541 12.6912C79.2331 12.1407 79.4895 11.6672 79.8221 11.2704C80.1547 10.8608 80.5709 10.5471 81.0701 10.3296C81.5823 10.0992 82.1707 9.98396 82.8365 9.98396C83.5407 9.98396 84.1421 10.1184 84.6413 10.3872C85.1405 10.656 85.5499 10.9887 85.8701 11.3856V10.656C85.8701 10.5279 85.9147 10.4192 86.0045 10.3296C86.0943 10.2272 86.2027 10.176 86.3309 10.176H88.2125C88.3407 10.176 88.4491 10.2272 88.5389 10.3296C88.6411 10.4192 88.6925 10.5279 88.6925 10.656L88.7117 19.8912C88.7117 20.8512 88.5259 21.6639 88.1549 22.3296C87.7839 22.9952 87.2333 23.5008 86.5037 23.8464C85.7871 24.2048 84.8909 24.384 83.8157 24.384ZM83.7197 17.7792C84.1805 17.7792 84.5515 17.6768 84.8333 17.472C85.1275 17.2544 85.3455 16.9856 85.4861 16.6656C85.6267 16.3328 85.7035 15.9872 85.7165 15.6288C85.7295 15.488 85.7357 15.2895 85.7357 15.0336C85.7357 14.7648 85.7295 14.5599 85.7165 14.4192C85.7035 14.0607 85.6267 13.7216 85.4861 13.4016C85.3455 13.0688 85.1275 12.8 84.8333 12.5952C84.5515 12.3903 84.1805 12.288 83.7197 12.288C83.2335 12.288 82.8495 12.3968 82.5677 12.6144C82.2859 12.8192 82.0815 13.0944 81.9533 13.44C81.8251 13.7856 81.7483 14.1632 81.7229 14.5728C81.7099 14.88 81.7099 15.1808 81.7229 15.4752C81.7483 15.8976 81.8251 16.2816 81.9533 16.6272C82.0815 16.9728 82.2859 17.2544 82.5677 17.472C82.8495 17.6768 83.2335 17.7792 83.7197 17.7792ZM91.5917 20.16C91.4635 20.16 91.3551 20.1152 91.2653 20.0256C91.1755 19.9359 91.1309 19.8207 91.1309 19.68V10.656C91.1309 10.5152 91.1755 10.4 91.2653 10.3104C91.3551 10.2207 91.4635 10.176 91.5917 10.176H93.5117C93.6523 10.176 93.7675 10.2207 93.8573 10.3104C93.9471 10.4 93.9917 10.5152 93.9917 10.656V19.68C93.9917 19.8207 93.9471 19.9359 93.8573 20.0256C93.7675 20.1152 93.6523 20.16 93.5117 20.16H91.5917ZM91.5341 8.63996C91.4059 8.63996 91.2975 8.59517 91.2077 8.50556C91.1179 8.41594 91.0733 8.30074 91.0733 8.15996V6.62396C91.0733 6.48317 91.1179 6.36797 91.2077 6.27836C91.2975 6.17597 91.4059 6.12476 91.5341 6.12476H93.5501C93.6907 6.12476 93.8059 6.17597 93.8957 6.27836C93.9979 6.36797 94.0493 6.48317 94.0493 6.62396V8.15996C94.0493 8.30074 93.9979 8.41594 93.8957 8.50556C93.8059 8.59517 93.6907 8.63996 93.5501 8.63996H91.5341ZM101.2 20.16C100.406 20.16 99.7277 20.0319 99.1647 19.776C98.6011 19.5072 98.1725 19.0976 97.8783 18.5472C97.5965 17.9967 97.4559 17.3055 97.4559 16.4736V12.4416H95.9583C95.8171 12.4416 95.7019 12.3968 95.6127 12.3072C95.5229 12.2175 95.4783 12.1023 95.4783 11.9616V10.656C95.4783 10.5152 95.5229 10.4 95.6127 10.3104C95.7019 10.2207 95.8171 10.176 95.9583 10.176H97.4559V7.00796C97.4559 6.86717 97.5005 6.75197 97.5898 6.66236C97.6925 6.57274 97.8077 6.52796 97.9359 6.52796H99.8175C99.9581 6.52796 100.073 6.57274 100.163 6.66236C100.252 6.75197 100.297 6.86717 100.297 7.00796V10.176H102.697C102.825 10.176 102.934 10.2207 103.024 10.3104C103.113 10.4 103.158 10.5152 103.158 10.656V11.9616C103.158 12.1023 103.113 12.2175 103.024 12.3072C102.934 12.3968 102.825 12.4416 102.697 12.4416H100.297V16.2432C100.297 16.7295 100.38 17.1135 100.547 17.3952C100.726 17.664 101.033 17.7984 101.469 17.7984H102.87C102.998 17.7984 103.107 17.8431 103.197 17.9328C103.286 18.0224 103.331 18.1311 103.331 18.2592V19.68C103.331 19.8207 103.286 19.9359 103.197 20.0256C103.107 20.1152 102.998 20.16 102.87 20.16H101.2ZM107.943 20.352C107.265 20.352 106.657 20.2239 106.119 19.968C105.582 19.6992 105.153 19.3407 104.833 18.8928C104.513 18.4448 104.353 17.9456 104.353 17.3952C104.353 16.4864 104.718 15.7695 105.447 15.2448C106.19 14.72 107.163 14.3616 108.366 14.1696L110.881 13.8048V13.4592C110.881 12.96 110.766 12.576 110.535 12.3072C110.305 12.0384 109.902 11.904 109.326 11.904C108.903 11.904 108.564 11.9871 108.308 12.1536C108.052 12.32 107.854 12.5376 107.713 12.8064C107.611 12.9728 107.463 13.056 107.271 13.056H105.447C105.307 13.056 105.198 13.0176 105.121 12.9408C105.044 12.8511 105.012 12.7488 105.025 12.6336C105.025 12.416 105.108 12.1599 105.275 11.8656C105.441 11.5712 105.697 11.2832 106.043 11.0016C106.388 10.7072 106.83 10.464 107.367 10.272C107.905 10.08 108.564 9.98396 109.345 9.98396C110.151 9.98396 110.843 10.08 111.419 10.272C111.995 10.464 112.455 10.7328 112.801 11.0784C113.147 11.424 113.403 11.8272 113.569 12.288C113.736 12.7359 113.819 13.2224 113.819 13.7472V19.68C113.819 19.8207 113.774 19.9359 113.684 20.0256C113.595 20.1152 113.48 20.16 113.339 20.16H111.457C111.329 20.16 111.22 20.1152 111.131 20.0256C111.041 19.9359 110.996 19.8207 110.996 19.68V18.9696C110.83 19.2128 110.606 19.4432 110.324 19.6608C110.043 19.8656 109.704 20.0319 109.307 20.16C108.923 20.288 108.468 20.352 107.943 20.352ZM108.711 18.3552C109.134 18.3552 109.512 18.2655 109.844 18.0864C110.177 17.9072 110.439 17.6319 110.631 17.2608C110.823 16.8896 110.919 16.4223 110.919 15.8592V15.5328L109.134 15.8208C108.443 15.936 107.937 16.1088 107.617 16.3392C107.297 16.5696 107.137 16.8512 107.137 17.184C107.137 17.4272 107.208 17.6384 107.348 17.8176C107.502 17.9967 107.7 18.1311 107.943 18.2208C108.187 18.3104 108.443 18.3552 108.711 18.3552ZM116.623 20.16C116.483 20.16 116.367 20.1152 116.278 20.0256C116.188 19.9359 116.143 19.8207 116.143 19.68V7.00796C116.143 6.86717 116.188 6.75197 116.278 6.66236C116.367 6.57274 116.483 6.52796 116.623 6.52796H118.543C118.671 6.52796 118.78 6.57274 118.87 6.66236C118.959 6.75197 119.004 6.86717 119.004 7.00796V19.68C119.004 19.8207 118.959 19.9359 118.87 20.0256C118.78 20.1152 118.671 20.16 118.543 20.16H116.623Z" fill="white"/>
<path d="M60.9408 40.8C60.8002 40.8 60.685 40.7552 60.5952 40.6656C60.5055 40.576 60.4608 40.4608 60.4608 40.32V27.84C60.4608 27.6992 60.5055 27.584 60.5952 27.4944C60.685 27.4048 60.8002 27.36 60.9408 27.36H66.6432C67.7055 27.36 68.5762 27.5136 69.2544 27.8208C69.9327 28.128 70.4319 28.5632 70.752 29.1264C71.0847 29.6896 71.2512 30.3488 71.2512 31.104C71.2512 31.5776 71.1615 31.9936 70.9824 32.352C70.8159 32.7104 70.6047 33.0048 70.3488 33.2352C70.1055 33.4656 69.8688 33.6384 69.6384 33.7536C70.1376 33.984 70.573 34.368 70.944 34.9056C71.328 35.4304 71.52 36.0576 71.52 36.7872C71.52 37.5936 71.341 38.2976 70.9824 38.8992C70.6239 39.5008 70.093 39.968 69.3888 40.3008C68.6847 40.6336 67.8274 40.8 66.816 40.8H60.9408ZM63.5136 38.5536H66.4512C67.0786 38.5536 67.5519 38.3808 67.872 38.0352C68.1922 37.6768 68.352 37.2544 68.352 36.768C68.352 36.2688 68.1855 35.8528 67.8528 35.52C67.5327 35.1744 67.0656 35.0016 66.4512 35.0016H63.5136V38.5536ZM63.5136 32.7936H66.2784C66.8799 32.7936 67.3282 32.6464 67.6224 32.352C67.9296 32.0448 68.0832 31.6544 68.0832 31.1808C68.0832 30.7072 67.9296 30.3296 67.6224 30.048C67.3282 29.7536 66.8799 29.6064 66.2784 29.6064H63.5136V32.7936ZM77.2671 40.992C76.5245 40.992 75.8655 40.8256 75.2895 40.4928C74.7259 40.1472 74.2843 39.6544 73.9647 39.0144C73.6575 38.3616 73.5039 37.5744 73.5039 36.6528V31.296C73.5039 31.1552 73.5485 31.04 73.6383 30.9504C73.7275 30.8608 73.8365 30.816 73.9647 30.816H75.9999C76.1405 30.816 76.2557 30.8608 76.3455 30.9504C76.4347 31.04 76.4799 31.1552 76.4799 31.296V36.5376C76.4799 37.9712 77.1067 38.688 78.3615 38.688C78.9629 38.688 79.4367 38.5024 79.7823 38.1312C80.1403 37.7472 80.3199 37.216 80.3199 36.5376V31.296C80.3199 31.1552 80.3645 31.04 80.4543 30.9504C80.5435 30.8608 80.6587 30.816 80.7999 30.816H82.8351C82.9627 30.816 83.0717 30.8608 83.1615 30.9504C83.2507 31.04 83.2959 31.1552 83.2959 31.296V40.32C83.2959 40.4608 83.2507 40.576 83.1615 40.6656C83.0717 40.7552 82.9627 40.8 82.8351 40.8H80.9535C80.8123 40.8 80.6971 40.7552 80.6079 40.6656C80.5181 40.576 80.4735 40.4608 80.4735 40.32V39.5712C80.1403 40.032 79.7117 40.384 79.1871 40.6272C78.6619 40.8704 78.0221 40.992 77.2671 40.992ZM89.6482 40.992C88.8547 40.992 88.1698 40.9024 87.5938 40.7232C87.0307 40.5312 86.5699 40.3008 86.2114 40.032C85.8658 39.7632 85.6032 39.4944 85.4242 39.2256C85.2576 38.944 85.1683 38.7072 85.1554 38.5152C85.1424 38.3744 85.1875 38.2592 85.2898 38.1696C85.392 38.08 85.4947 38.0352 85.597 38.0352H87.4594C87.4978 38.0352 87.5362 38.0416 87.5746 38.0544C87.613 38.0672 87.6514 38.0992 87.6898 38.1504C87.8563 38.2656 88.0291 38.4 88.2082 38.5536C88.3872 38.6944 88.5922 38.816 88.8226 38.9184C89.0659 39.0208 89.3664 39.072 89.725 39.072C90.1474 39.072 90.5059 38.9888 90.8002 38.8224C91.0944 38.6432 91.2418 38.3936 91.2418 38.0736C91.2418 37.8432 91.1712 37.6512 91.0306 37.4976C90.9024 37.344 90.6528 37.2032 90.2818 37.0752C89.9107 36.9472 89.3602 36.8064 88.6306 36.6528C87.9394 36.4992 87.3504 36.2944 86.8642 36.0384C86.3779 35.7824 86.0131 35.4624 85.7698 35.0784C85.5264 34.6816 85.405 34.208 85.405 33.6576C85.405 33.1584 85.5586 32.6784 85.8658 32.2176C86.1859 31.7568 86.653 31.3792 87.2674 31.0848C87.8818 30.7776 88.6498 30.624 89.5714 30.624C90.2755 30.624 90.8899 30.7136 91.4146 30.8928C91.9522 31.0592 92.4 31.2768 92.7586 31.5456C93.1171 31.8016 93.3859 32.0704 93.565 32.352C93.757 32.6208 93.8592 32.8576 93.8722 33.0624C93.8851 33.1904 93.8467 33.2992 93.757 33.3888C93.6672 33.4784 93.565 33.5232 93.4498 33.5232H91.741C91.6771 33.5232 91.6195 33.5168 91.5682 33.504C91.5168 33.4784 91.4722 33.4464 91.4338 33.408C91.2802 33.3056 91.1203 33.1904 90.9538 33.0624C90.8002 32.9216 90.6144 32.8 90.397 32.6976C90.1795 32.5952 89.8978 32.544 89.5522 32.544C89.1298 32.544 88.8034 32.64 88.573 32.832C88.3555 33.0112 88.2466 33.2416 88.2466 33.5232C88.2466 33.7024 88.3042 33.8688 88.4194 34.0224C88.5346 34.176 88.7712 34.3168 89.1298 34.4448C89.4883 34.5728 90.0322 34.7072 90.7618 34.848C91.632 35.0016 92.3232 35.232 92.8354 35.5392C93.3475 35.8464 93.7123 36.2048 93.9298 36.6144C94.1602 37.0112 94.2754 37.44 94.2754 37.9008C94.2754 38.5024 94.0963 39.04 93.7378 39.5136C93.3792 39.9744 92.8546 40.3392 92.1634 40.608C91.4851 40.864 90.6466 40.992 89.6482 40.992ZM96.5794 40.8C96.4512 40.8 96.3423 40.7552 96.253 40.6656C96.1632 40.576 96.1186 40.4608 96.1186 40.32V31.296C96.1186 31.1552 96.1632 31.04 96.253 30.9504C96.3423 30.8608 96.4512 30.816 96.5794 30.816H98.4994C98.64 30.816 98.7552 30.8608 98.845 30.9504C98.9343 31.04 98.9794 31.1552 98.9794 31.296V40.32C98.9794 40.4608 98.9343 40.576 98.845 40.6656C98.7552 40.7552 98.64 40.8 98.4994 40.8H96.5794ZM96.5218 29.28C96.3936 29.28 96.2847 29.2352 96.1954 29.1456C96.1056 29.056 96.061 28.9408 96.061 28.8V27.264C96.061 27.1232 96.1056 27.008 96.1954 26.9184C96.2847 26.816 96.3936 26.7648 96.5218 26.7648H98.5378C98.6784 26.7648 98.7936 26.816 98.8834 26.9184C98.9856 27.008 99.037 27.1232 99.037 27.264V28.8C99.037 28.9408 98.9856 29.056 98.8834 29.1456C98.7936 29.2352 98.6784 29.28 98.5378 29.28H96.5218ZM102.336 40.8C102.207 40.8 102.098 40.7552 102.009 40.6656C101.919 40.576 101.875 40.4608 101.875 40.32V31.296C101.875 31.1552 101.919 31.04 102.009 30.9504C102.098 30.8608 102.207 30.816 102.336 30.816H104.217C104.358 30.816 104.473 30.8608 104.563 30.9504C104.652 31.04 104.697 31.1552 104.697 31.296V32.0448C105.03 31.6352 105.458 31.296 105.984 31.0272C106.508 30.7584 107.148 30.624 107.904 30.624C108.659 30.624 109.318 30.7968 109.881 31.1424C110.457 31.4752 110.905 31.968 111.225 32.6208C111.558 33.2608 111.724 34.0416 111.724 34.9632V40.32C111.724 40.4608 111.673 40.576 111.571 40.6656C111.481 40.7552 111.372 40.8 111.244 40.8H109.209C109.068 40.8 108.953 40.7552 108.864 40.6656C108.774 40.576 108.729 40.4608 108.729 40.32V35.0784C108.729 34.4 108.563 33.8752 108.23 33.504C107.91 33.12 107.436 32.928 106.809 32.928C106.207 32.928 105.727 33.12 105.369 33.504C105.011 33.8752 104.832 34.4 104.832 35.0784V40.32C104.832 40.4608 104.786 40.576 104.697 40.6656C104.607 40.7552 104.498 40.8 104.371 40.8H102.336ZM118.479 40.992C117.007 40.992 115.836 40.5824 114.965 39.7632C114.108 38.944 113.653 37.7536 113.602 36.192C113.602 36.0896 113.602 35.9552 113.602 35.7888C113.602 35.6096 113.602 35.4688 113.602 35.3664C113.653 34.3808 113.878 33.536 114.274 32.832C114.671 32.1152 115.228 31.5712 115.944 31.2C116.662 30.816 117.5 30.624 118.46 30.624C119.535 30.624 120.431 30.848 121.148 31.296C121.877 31.7312 122.422 32.3328 122.78 33.1008C123.151 33.856 123.336 34.7264 123.336 35.712V36.1536C123.336 36.2816 123.286 36.3904 123.183 36.48C123.094 36.5696 122.985 36.6144 122.856 36.6144H116.578C116.578 36.6272 116.578 36.6528 116.578 36.6912C116.578 36.7168 116.578 36.7424 116.578 36.768C116.591 37.1776 116.668 37.5552 116.808 37.9008C116.962 38.2336 117.173 38.5024 117.442 38.7072C117.724 38.912 118.056 39.0144 118.44 39.0144C118.761 39.0144 119.023 38.9696 119.228 38.88C119.433 38.7904 119.599 38.6816 119.727 38.5536C119.868 38.4256 119.97 38.3168 120.034 38.2272C120.149 38.0992 120.239 38.0224 120.303 37.9968C120.38 37.9584 120.495 37.9392 120.648 37.9392H122.645C122.773 37.9392 122.876 37.9776 122.952 38.0544C123.042 38.1184 123.081 38.2144 123.068 38.3424C123.055 38.5472 122.946 38.8032 122.741 39.1104C122.549 39.4048 122.261 39.6992 121.877 39.9936C121.493 40.2752 121.013 40.512 120.437 40.704C119.874 40.896 119.221 40.992 118.479 40.992ZM116.578 34.8672H120.341V34.8288C120.341 34.368 120.264 33.9712 120.111 33.6384C119.97 33.2928 119.759 33.024 119.477 32.832C119.196 32.64 118.857 32.544 118.46 32.544C118.063 32.544 117.724 32.64 117.442 32.832C117.161 33.024 116.943 33.2928 116.789 33.6384C116.649 33.9712 116.578 34.368 116.578 34.8288V34.8672ZM129.192 40.992C128.398 40.992 127.714 40.9024 127.138 40.7232C126.574 40.5312 126.113 40.3008 125.755 40.032C125.41 39.7632 125.147 39.4944 124.968 39.2256C124.801 38.944 124.712 38.7072 124.699 38.5152C124.686 38.3744 124.731 38.2592 124.834 38.1696C124.936 38.08 125.038 38.0352 125.141 38.0352H127.003C127.042 38.0352 127.08 38.0416 127.118 38.0544C127.157 38.0672 127.195 38.0992 127.234 38.1504C127.4 38.2656 127.572 38.4 127.752 38.5536C127.931 38.6944 128.136 38.816 128.366 38.9184C128.609 39.0208 128.91 39.072 129.269 39.072C129.691 39.072 130.049 38.9888 130.344 38.8224C130.638 38.6432 130.786 38.3936 130.786 38.0736C130.786 37.8432 130.715 37.6512 130.574 37.4976C130.446 37.344 130.197 37.2032 129.826 37.0752C129.454 36.9472 128.904 36.8064 128.174 36.6528C127.483 36.4992 126.894 36.2944 126.408 36.0384C125.921 35.7824 125.557 35.4624 125.314 35.0784C125.07 34.6816 124.949 34.208 124.949 33.6576C124.949 33.1584 125.102 32.6784 125.41 32.2176C125.729 31.7568 126.197 31.3792 126.811 31.0848C127.426 30.7776 128.194 30.624 129.115 30.624C129.819 30.624 130.433 30.7136 130.958 30.8928C131.496 31.0592 131.944 31.2768 132.302 31.5456C132.66 31.8016 132.929 32.0704 133.109 32.352C133.301 32.6208 133.403 32.8576 133.416 33.0624C133.429 33.1904 133.39 33.2992 133.301 33.3888C133.211 33.4784 133.109 33.5232 132.994 33.5232H131.285C131.221 33.5232 131.163 33.5168 131.112 33.504C131.061 33.4784 131.016 33.4464 130.978 33.408C130.824 33.3056 130.664 33.1904 130.498 33.0624C130.344 32.9216 130.158 32.8 129.941 32.6976C129.723 32.5952 129.442 32.544 129.096 32.544C128.674 32.544 128.347 32.64 128.117 32.832C127.899 33.0112 127.79 33.2416 127.79 33.5232C127.79 33.7024 127.848 33.8688 127.963 34.0224C128.078 34.176 128.315 34.3168 128.674 34.4448C129.032 34.5728 129.576 34.7072 130.306 34.848C131.176 35.0016 131.867 35.232 132.379 35.5392C132.891 35.8464 133.256 36.2048 133.474 36.6144C133.704 37.0112 133.819 37.44 133.819 37.9008C133.819 38.5024 133.64 39.04 133.282 39.5136C132.923 39.9744 132.398 40.3392 131.707 40.608C131.029 40.864 130.19 40.992 129.192 40.992ZM139.598 40.992C138.805 40.992 138.12 40.9024 137.544 40.7232C136.981 40.5312 136.52 40.3008 136.161 40.032C135.816 39.7632 135.553 39.4944 135.374 39.2256C135.208 38.944 135.118 38.7072 135.105 38.5152C135.093 38.3744 135.137 38.2592 135.24 38.1696C135.342 38.08 135.445 38.0352 135.547 38.0352H137.409C137.448 38.0352 137.486 38.0416 137.524 38.0544C137.563 38.0672 137.601 38.0992 137.64 38.1504C137.806 38.2656 137.979 38.4 138.158 38.5536C138.337 38.6944 138.542 38.816 138.772 38.9184C139.016 39.0208 139.317 39.072 139.675 39.072C140.097 39.072 140.456 38.9888 140.75 38.8224C141.045 38.6432 141.192 38.3936 141.192 38.0736C141.192 37.8432 141.121 37.6512 140.98 37.4976C140.853 37.344 140.603 37.2032 140.232 37.0752C139.86 36.9472 139.31 36.8064 138.58 36.6528C137.889 36.4992 137.301 36.2944 136.814 36.0384C136.328 35.7824 135.963 35.4624 135.72 35.0784C135.477 34.6816 135.355 34.208 135.355 33.6576C135.355 33.1584 135.508 32.6784 135.816 32.2176C136.136 31.7568 136.603 31.3792 137.217 31.0848C137.832 30.7776 138.6 30.624 139.521 30.624C140.225 30.624 140.84 30.7136 141.364 30.8928C141.902 31.0592 142.35 31.2768 142.708 31.5456C143.067 31.8016 143.336 32.0704 143.515 32.352C143.707 32.6208 143.809 32.8576 143.822 33.0624C143.835 33.1904 143.797 33.2992 143.707 33.3888C143.617 33.4784 143.515 33.5232 143.4 33.5232H141.691C141.627 33.5232 141.569 33.5168 141.518 33.504C141.467 33.4784 141.422 33.4464 141.384 33.408C141.23 33.3056 141.07 33.1904 140.904 33.0624C140.75 32.9216 140.565 32.8 140.347 32.6976C140.129 32.5952 139.848 32.544 139.502 32.544C139.08 32.544 138.753 32.64 138.523 32.832C138.305 33.0112 138.196 33.2416 138.196 33.5232C138.196 33.7024 138.254 33.8688 138.369 34.0224C138.484 34.176 138.721 34.3168 139.08 34.4448C139.438 34.5728 139.982 34.7072 140.712 34.848C141.582 35.0016 142.273 35.232 142.785 35.5392C143.297 35.8464 143.662 36.2048 143.88 36.6144C144.11 37.0112 144.225 37.44 144.225 37.9008C144.225 38.5024 144.046 39.04 143.688 39.5136C143.329 39.9744 142.804 40.3392 142.113 40.608C141.435 40.864 140.596 40.992 139.598 40.992Z" fill="white"/>
<path d="M48 24C48 30.6309 45.3031 36.6186 40.9732 40.9732C36.6186 45.3031 30.6309 48 24 48H17.567C16.8742 48 16.3299 47.4557 16.3299 46.7629V41.0722C16.3299 40.3794 16.8742 39.8351 17.567 39.8351H24C28.3794 39.8351 32.3381 38.0536 35.2082 35.2082C38.0536 32.3381 39.8351 28.3794 39.8351 24C39.8351 15.266 32.734 8.16494 24 8.16494H9.40205C8.70926 8.16494 8.16494 8.70926 8.16494 9.40205V30.433C8.16494 31.1258 7.62062 31.6701 6.92784 31.6701H1.23711C0.54433 31.6701 0 31.1258 0 30.433V1.23711C0 0.54433 0.54433 0 1.23711 0H24C37.2619 0 48 10.7381 48 24Z" fill="white"/>
<path d="M16.3299 32.9073V38.598C16.3299 39.2908 15.7855 39.8351 15.0927 39.8351H9.40202C8.70924 39.8351 8.16492 39.2908 8.16492 38.598V32.9073C8.16492 32.2145 8.70924 31.6702 9.40202 31.6702H15.0927C15.7855 31.6702 16.3299 32.2145 16.3299 32.9073Z" fill="white"/>
</g>
<defs>
<clipPath id="clip0_205_146">
<rect width="144.96" height="48" fill="white"/>
</clipPath>
</defs>
</svg>
